<?xml version="1.0" encoding="utf-8"?>
<!-- Generator: Adobe Illustrator 15.1.0, SVG Export Plug-In . SVG Version: 6.00 Build 0)  -->
<!DOCTYPE svg PUBLIC "-//W3C//DTD SVG 1.1//EN" "http://www.w3.org/Graphics/SVG/1.1/DTD/svg11.dtd">
<svg version="1.1" id="Layer_1" xmlns="http://www.w3.org/2000/svg" xmlns:xlink="http://www.w3.org/1999/xlink" x="0px" y="0px"
	 width="612px" height="792px" viewBox="0 0 612 792" enable-background="new 0 0 612 792" xml:space="preserve">
<path fill-rule="evenodd" clip-rule="evenodd" stroke="#000000" stroke-width="2.9999" stroke-linecap="round" stroke-linejoin="round" stroke-miterlimit="22.9256" d="
	M302.753,37.681c-3.506,1.417-10.377,4.179-14.592,5.985c-4.214,1.806-5.772,2.656-6.586,3.399
	c-0.815,0.744-0.886,1.381-0.496,9.952c0.056,1.24,0.122,2.646,0.195,4.188h-5.115c-1.149-1.685-2.906-2.763-4.875-2.763
	c-3.462,0-6.269,3.33-6.269,7.438c0,4.107,2.806,7.437,6.269,7.437c1.969,0,3.726-1.077,4.875-2.762h5.557
	c0.253,5.44,0.526,11.542,0.762,17.637h-4.938c-1.149-1.685-2.906-2.762-4.875-2.762c-3.462,0-6.269,3.33-6.269,7.437
	s2.807,7.437,6.269,7.437c1.969,0,3.726-1.077,4.875-2.762h5.264c0.196,6.391,0.319,12.393,0.41,17.637h-4.293
	c-1.149-1.685-2.906-2.762-4.875-2.762c-3.462,0-6.269,3.33-6.269,7.437c0,4.108,2.807,7.438,6.269,7.438
	c1.969,0,3.726-1.078,4.875-2.763h4.446c0.039,2.284,0.076,4.251,0.119,5.835c0.177,6.41,0.46,6.552,1.169,7.473
	c0.708,0.92,1.841,2.621,2.656,4.604c0.814,1.983,1.311,4.25,1.594,7.933c0.284,3.683,0.354,8.783,0.354,14.379
	c0,5.596-0.07,11.687-0.761,52.752c-0.69,41.064-2.001,117.102-2.656,155.12c-0.655,38.019-0.655,38.019-1.824,38.054
	c-1.168,0.035-3.506,0.106-8.96,0.496s-14.025,1.098-21.639,2.461c-7.615,1.364-14.272,3.382-19.319,5.313
	c-5.047,1.93-8.482,3.771-11.865,6.286c-3.382,2.514-6.711,5.701-9.509,9.137c-2.798,3.435-5.064,7.118-7.118,10.979
	c-2.055,3.86-3.896,7.897-4.853,13.28c-0.956,5.384-1.027,12.113,0.39,19.302c1.417,7.189,4.32,14.84,7.543,22.348
	s6.765,14.874,8.854,20.788c2.089,5.915,2.727,10.377,2.444,14.096s-1.488,6.693-5.738,13.671
	c-4.25,6.977-11.545,17.956-18.664,30.422c-7.119,12.466-14.06,26.42-18.19,39.488c-4.13,13.068-5.449,25.251-5.308,37.292
	c0.141,12.042,1.743,23.941,6.511,35.629c4.767,11.687,12.7,23.161,21.554,31.873c8.854,8.713,18.629,14.663,30.245,19.631
	c41.555,17.774,110.65,17.774,152.205,0c11.616-4.968,21.391-10.918,30.245-19.631c8.854-8.712,16.787-20.187,21.555-31.873
	c4.768-11.688,6.369-23.587,6.511-35.629c0.142-12.041-1.178-24.224-5.308-37.292c-4.131-13.068-11.071-27.022-18.19-39.488
	c-7.117-12.466-14.413-23.445-18.663-30.422c-4.25-6.978-5.454-9.952-5.738-13.671c-0.283-3.719,0.354-8.181,2.444-14.096
	c2.089-5.914,5.631-13.28,8.854-20.788s6.127-15.158,7.544-22.348c1.416-7.188,1.346-13.918,0.39-19.302
	c-0.957-5.383-2.798-9.42-4.853-13.28s-4.32-7.544-7.118-10.979c-2.798-3.436-6.127-6.623-9.509-9.137
	c-3.383-2.515-6.817-4.356-11.865-6.286c-5.046-1.931-11.704-3.948-19.318-5.313c-7.614-1.363-16.186-2.071-21.64-2.461
	c-5.453-0.39-7.791-0.461-8.96-0.496c-1.168-0.035-1.168-0.035-1.824-38.054c-0.654-38.019-1.966-114.056-2.656-155.12
	c-0.69-41.065-0.761-47.156-0.761-52.752c0-5.596,0.07-10.696,0.354-14.379s0.779-5.95,1.594-7.933
	c0.814-1.983,1.948-3.684,2.656-4.604c0.708-0.921,0.992-1.063,1.169-7.473c0.043-1.584,0.08-3.551,0.119-5.835h4.445
	c1.149,1.685,2.905,2.763,4.875,2.763c3.462,0,6.269-3.33,6.269-7.438c0-4.107-2.807-7.437-6.269-7.437
	c-1.97,0-3.726,1.077-4.875,2.762h-4.293c0.092-5.244,0.214-11.247,0.41-17.637h5.264c1.149,1.685,2.906,2.762,4.875,2.762
	c3.462,0,6.269-3.33,6.269-7.437s-2.807-7.437-6.269-7.437c-1.969,0-3.726,1.078-4.875,2.762h-4.938
	c0.235-6.095,0.509-12.196,0.763-17.637h5.556c1.149,1.685,2.906,2.762,4.876,2.762c3.462,0,6.269-3.33,6.269-7.437
	c0-4.108-2.807-7.438-6.269-7.438c-1.97,0-3.727,1.078-4.876,2.763h-5.113c0.072-1.542,0.139-2.948,0.195-4.188
	c0.39-8.571,0.318-9.208-0.496-9.952c-0.814-0.744-2.373-1.593-6.587-3.399c-4.215-1.806-11.086-4.568-14.592-5.985
	C306.351,36.106,306.649,36.106,302.753,37.681z"/>
</svg>
