<?xml version="1.0" encoding="utf-8"?>
<!-- Generator: Adobe Illustrator 15.1.0, SVG Export Plug-In . SVG Version: 6.00 Build 0)  -->
<!DOCTYPE svg PUBLIC "-//W3C//DTD SVG 1.1//EN" "http://www.w3.org/Graphics/SVG/1.1/DTD/svg11.dtd">
<svg version="1.1" id="Layer_1" xmlns="http://www.w3.org/2000/svg" xmlns:xlink="http://www.w3.org/1999/xlink" x="0px" y="0px"
	 width="792px" height="612px" viewBox="0 0 792 612" enable-background="new 0 0 792 612" xml:space="preserve">
<path fill-rule="evenodd" clip-rule="evenodd" stroke="#000000" stroke-width="3" stroke-linecap="round" stroke-linejoin="round" stroke-miterlimit="22.9256" d="
	M468.387,263.712c1.062,3.298,2.247,6.627,3.636,9.901c4.922,11.608,12.393,22.533,15.211,27.843s0.984,5.007,2.396,9.407
	c1.412,4.4,6.069,13.505,9.433,19.118c3.362,5.614,5.431,7.739,5.02,8.726c-0.41,0.986-3.301,0.834-2.896,4.779
	s4.104,11.987,7.009,17.525s5.014,8.573,4.84,9.787c-0.173,1.214-2.628,0.606-4.38,2.124c-1.753,1.517-2.803,5.159-5.204,7.435
	c-2.401,2.276-6.154,3.187-9.406,3.414c-3.252,0.229-6.004-0.228-8.03-1.441c-2.027-1.214-3.33-3.187-5.554-3.718
	c-2.224-0.53-5.37,0.38-7.734-1.593c-2.365-1.973-3.948-6.828-6.123-9.636c-2.175-2.807-4.94-3.565-6.966-6.448
	c-2.026-2.883-3.313-7.891-5.443-11.38c-2.13-3.49-5.101-5.462-6.907-8.497c-1.805-3.034-2.444-7.132-3.514-7.283
	c-1.068-0.152-2.567,3.642-5.067,10.47s-6.002,16.69-7.33,24.277s-0.482,12.897-0.861,19.649c-0.38,6.752-1.983,14.946-2.536,22.912
	c-0.552,7.966-0.053,15.704,1.943,29.739c1.997,14.036,5.489,34.369,8.568,48.859c3.079,14.491,5.743,23.14,6.614,32.396
	s-0.051,19.119-1.552,27.919c-1.501,8.801-3.581,16.539-4.828,20.863s-1.661,5.235-4,5.539c-2.338,0.303-6.6,0-8.509-1.974
	c-1.91-1.972-1.467-5.613-1.367-11.835c0.1-6.221-0.145-15.021-1.531-20.56s-3.917-7.814-6.764-10.394
	c-2.848-2.58-6.012-5.463-7.521-8.649c-1.509-3.186-1.362-6.676,0.425-9.104c1.788-2.427,5.217-3.793,7.259-5.613
	c2.043-1.821,2.699-4.097,2.167-7.511c-0.533-3.414-2.256-7.966-6.551-17.449c-4.296-9.483-11.164-23.898-14.595-39.451
	s-3.422-32.243-3.537-44.913s-0.352-21.318-1.172-34.52c-0.821-13.201-2.227-30.954-3.595-46.203
	c-1.369-15.25-2.7-27.995-3.734-35.81c-1.034-7.814-1.771-10.697-8.842-14.414c-7.071-3.718-20.476-8.27-36.212-14.036
	c-15.736-5.766-33.803-12.745-45.438-18.435c-11.636-5.69-16.841-10.091-23.643-14.566c-6.801-4.476-15.199-9.028-26.642-15.476
	c-11.442-6.449-25.929-14.794-36.93-19.877c-11.002-5.083-18.519-6.904-27.914-10.014c-9.396-3.11-20.67-7.511-31.319-13.201
	c-10.65-5.69-20.675-12.67-24.821-17.146s-2.414-6.449-0.903-8.27c1.511-1.821,2.802-3.49,8.816-3.035
	c6.014,0.455,16.751,3.035,26.94,6.904c10.188,3.869,19.828,9.028,25.913,12.746c6.084,3.717,8.614,5.993,12.435,8.27
	c3.819,2.276,8.929,4.552,21.673,7.89c12.744,3.338,33.123,7.738,47.176,13.201c14.053,5.462,21.781,11.987,28.559,15.932
	c6.777,3.945,12.605,5.311,25.419,6.828s32.614,3.186,41.418,3.262c8.804,0.076,6.612-1.441,5.695-3.262s-0.557-3.945-1.715-6.069
	c-1.157-2.125-3.833-4.249-4.979-6.145c-1.147-1.897-0.767-3.566-1.859-5.918s-3.656-5.387-4.751-7.814
	c-1.096-2.428-0.723-4.249-1.735-6.524s-3.411-5.007-4.334-6.979c-0.923-1.973-0.371-3.187-0.932-5.539
	c-0.561-2.352-2.235-5.842-2.298-8.952c-0.064-3.11,1.482-5.842,1.597-8.346c0.115-2.503-1.202-4.779-0.531-6.752
	c0.67-1.973,3.326-3.642,5.82-3.869c2.493-0.228,4.824,0.985,6.172,0.606c1.349-0.379,1.715-2.352,3.216-2.731
	c1.5-0.38,4.134,0.834,5.92,0.91s2.725-0.986,5.185,0.569c2.46,1.555,6.441,5.728,8.879,8.497c2.438,2.769,3.334,4.134,3.941,4.134
	c0.606,0,0.925-1.365,2.188-0.265s3.472,4.666,5.643,8.231c2.17,3.566,4.303,7.131,5.22,8.118s0.617-0.606,1.761,0.342
	c1.142,0.948,3.727,4.438,6.316,8.042c2.59,3.604,5.185,7.321,6.729,8.762c1.543,1.441,2.037,0.607,3.691,1.973
	c1.655,1.366,4.471,4.931,8.489,9.938c0.996,1.241,2.065,2.57,3.178,3.946c1.75-0.319,1.802-4.164,1.373-8.408
	c-0.518-5.111-1.73-10.801-2.451-16.377c-0.721-5.576-0.947-11.038-1.326-15.211c-0.379-4.172-0.91-7.056-2.845-9.446
	c-1.935-2.389-5.273-4.286-11.873-6.904c-6.601-2.617-16.463-5.956-23.443-8.459c-6.98-2.504-11.077-4.172-17.298-5.651
	c-6.221-1.48-14.566-2.77-24.391-5.653c-9.825-2.883-21.129-7.359-29.208-10.204c-8.08-2.845-12.936-4.059-16.615-3.452
	c-3.68,0.607-6.183,3.035-9.407,4.21c-3.225,1.176-7.17,1.1-9.863,1.48c-2.693,0.379-4.135,1.214-5.728,1.555
	s-3.338,0.19-4.476-0.152c-1.138-0.341-1.669-0.873-0.948-1.745c0.721-0.873,2.693-2.086,5.083-3.642
	c2.39-1.555,5.196-3.452,4.931-4.893c-0.266-1.441-3.604-2.428-8.421-2.503c-4.818-0.076-11.115,0.758-15.287,1.935
	c-4.173,1.176-6.221,2.693-8.384,3.376c-2.162,0.683-4.438,0.53-4.59-0.228c-0.808-4.041,13.246-11.671,16.425-12.404
	c4.438-1.024,8.08-1.859,10.622-2.39c2.541-0.531,3.983-0.759,7.169-0.417c3.187,0.341,8.118,1.252,12.214,1.441
	s7.359-0.341,9.825-0.417c2.466-0.076,4.135,0.303,8.156,1.441c4.021,1.138,10.394,3.035,19.46,4.514s20.826,2.542,28.905,3.414
	c8.08,0.872,12.48,1.555,17.791,3.869c5.311,2.313,11.532,6.258,17.146,8.725c5.614,2.465,10.622,3.452,15.629,3.565
	s10.015-0.645,15.212-0.342c5.196,0.304,10.583,1.669,14.3,2.011c3.718,0.341,5.767-0.342,7.132-2.087
	c1.366-1.745,2.049-4.552,1.973-6.903c-0.076-2.352-0.91-4.249-3.262-5.918c-2.353-1.669-6.222-3.11-10.508-5.804
	c-4.287-2.693-8.991-6.638-11.722-11.608c-0.336-0.61-0.642-1.237-0.919-1.877l-0.067,0.019c-3.338,0.911-5.69,0.304-7.891-1.176
	s-4.248-3.831-5.12-7.928c-0.873-4.097-0.569-9.938,1.251-14.225c1.821-4.287,5.159-7.018,8.27-7.738
	c2.666-0.618,5.165,0.241,7.066,1.718c0.418-0.596,0.856-1.17,1.317-1.718c3.604-4.287,8.535-7.018,13.012-8.687
	c4.477-1.669,8.498-2.275,12.633-2.541s8.384-0.19,12.594,1.214c4.211,1.403,8.384,4.135,10.697,7.169
	c2.314,3.035,2.77,6.373,4.135,8.687s3.642,3.604,5.728,4.59c2.087,0.986,3.983,1.669,4.021,2.731
	c0.038,1.062-1.782,2.503-2.655,3.565c-0.873,1.062-0.797,1.745-0.266,2.655s1.518,2.048,1.782,2.959
	c0.267,0.91-0.188,1.593-0.075,2.124s0.797,0.911,0.872,1.821c0.076,0.91-0.455,2.352-0.341,3.869
	c0.113,1.517,0.872,3.11,1.214,4.476c0.341,1.366,0.266,2.504-2.162,3.49c-2.428,0.986-7.208,1.821-10.091,4.362
	c-2.883,2.542-3.869,6.791-3.224,11.949c0.645,5.159,2.92,11.229,5.462,14.415c2.542,3.186,5.349,3.49,9.331,1.859
	c3.983-1.631,9.143-5.197,14.795-7.587c5.652-2.39,11.797-3.604,19.497-7.093c7.701-3.49,16.957-9.256,23.747-14.718
	c6.79-5.463,11.114-10.622,17.648-15.828s15.278-10.46,21.356-14.681c6.08-4.22,9.494-7.407,13.59-10.973
	c4.098-3.565,8.877-7.511,13.467-9.597c4.59-2.086,8.99-2.314,14.566-2.58c5.576-0.266,12.329-0.569,16.691-1.062
	c4.361-0.493,6.334-1.176,8.459-1.328c2.124-0.151,4.399,0.228,7.245,0.417c2.845,0.189,6.259,0.189,9.369,1.252
	c3.11,1.062,5.918,3.186,5.387,3.869c-0.531,0.683-4.399-0.076-10.508,0.304c-6.106,0.379-14.452,1.896-17.98,3.167
	c-3.527,1.271-2.237,2.294,0.171,3.642c2.409,1.347,5.937,3.016,7.321,4.267c1.385,1.252,0.626,2.087-1.005,2.257
	c-1.632,0.171-4.135-0.323-8.267-0.582c-4.13-0.26-9.889-0.286-14.517-0.893s-8.125-1.794-10.158-1.971s-2.603,0.657-4.708,2.44
	c-2.104,1.783-5.747,4.514-12.044,10.507c-6.297,5.994-15.248,15.249-22.304,22.153c-7.056,6.903-12.215,11.456-22.305,18.966
	c-10.091,7.511-25.112,17.98-34.671,24.581c-9.56,6.601-13.656,9.332-14.567,13.201c-0.91,3.869,1.366,8.876,0.986,17.905
	c-0.379,9.028-3.413,22.077-8.27,33.912c-4.855,11.835-11.531,22.457-17.373,33.079c-5.842,10.621-10.85,21.242-12.595,31.788
	C468.628,261.769,468.495,262.74,468.387,263.712z"/>
</svg>
