<?xml version="1.0" encoding="utf-8"?>
<!-- Generator: Adobe Illustrator 15.1.0, SVG Export Plug-In . SVG Version: 6.00 Build 0)  -->
<!DOCTYPE svg PUBLIC "-//W3C//DTD SVG 1.1//EN" "http://www.w3.org/Graphics/SVG/1.1/DTD/svg11.dtd">
<svg version="1.1" id="Layer_1" xmlns="http://www.w3.org/2000/svg" xmlns:xlink="http://www.w3.org/1999/xlink" x="0px" y="0px"
	 width="612px" height="792px" viewBox="0 0 612 792" enable-background="new 0 0 612 792" xml:space="preserve">
<path fill-rule="evenodd" clip-rule="evenodd" stroke="#000000" stroke-width="2.9999" stroke-linecap="round" stroke-linejoin="round" stroke-miterlimit="22.9256" d="
	M120.521,193.156c-4.474,12.469-16.794,37.467-24.03,55.823c-7.234,18.358-9.383,30.076-8.879,39.254
	c0.505,9.178,3.662,15.811,0.631,23.164c-3.03,7.351-12.247,15.42-22.757,25.942C54.976,347.863,43.178,360.84,38.5,370.75
	c-4.677,9.91-2.231,16.75,2.736,20.859c4.967,4.105,12.456,5.478,15.768,7.601c3.313,2.12,2.451,4.99,0.046,8.924
	c-2.403,3.935-6.348,8.929-5.867,12.719c0.486,3.79,5.395,6.373,5.435,8.905c0.041,2.53-4.789,5.01-6.598,7.54
	c-1.81,2.527-0.599,5.104,2.251,8.824c2.853,3.72,7.342,8.579,8.045,13.926c0.703,5.342-2.382,11.169-4.627,16.982
	c-2.242,5.813-3.641,11.613,0.713,18.133c4.358,6.52,14.47,13.755,24.573,18.299c10.104,4.544,20.193,6.394,29.611,12.831
	c9.42,6.439,18.166,17.461,22.694,26.703c3.071,6.264,4.208,11.71,10.625,16.089c-2.518,2.609-4.606,5.784-7.182,10.032
	c-8.44,13.929-22.104,39.39-37.355,69.588c-15.25,30.197-32.083,65.135-37.698,79.246c-5.616,14.11-0.011,7.401,17.372-7.58
	c17.383-14.984,46.547-38.239,83.562-57.527c37.016-19.291,81.886-34.62,121.415-42.849c39.531-8.23,73.723-9.365,105.926-6.993
	c32.202,2.369,62.42,8.246,80.486,11.558c18.066,3.313,23.984,4.062,14.191-9.509c-9.793-13.574-35.298-41.467-64.782-60.5
	c-2.607-1.684-5.247-3.297-7.925-4.84c18.483,2.46,34.526,7.114,52.427,8.97c18.987,1.967,40.064,0.782,56.966-7.895
	c16.901-8.678,29.624-24.853,35.442-36.403c5.819-11.55,4.733-18.479,7.381-27.416c2.648-8.936,9.029-19.878,11.103-32.114
	c2.078-12.24-0.153-25.77-5.689-36.879c-5.533-11.109-14.37-19.794-21.332-26.79c-6.96-6.997-12.044-12.303-14.124-18.405
	c-2.076-6.1-1.148-12.997-2.547-19.141c-1.396-6.145-5.115-11.537-10.553-18.589c-5.437-7.055-12.588-15.768-17.209-24.521
	c-4.619-8.756-6.707-17.549-7.507-37.043c-0.8-19.497-0.314-49.689-9.444-82.488c-9.127-32.798-27.873-68.2-54.022-91.667
	c-26.146-23.467-59.695-35.003-85.707-39.938c-26.014-4.937-44.485-3.278-57.058,0.137c-12.57,3.417-19.237,8.587-28.845,8.677
	c-9.605,0.089-22.147-4.902-33.837-7.213c-11.69-2.312-22.522-1.943-32.252,0.647c-9.729,2.591-18.35,7.401-24.575,13.833
	c-6.226,6.429-10.057,14.475-15.6,19.013c-5.542,4.534-12.794,5.561-21.06,10.271c-8.267,4.708-17.544,13.1-22.856,21.884
	c-5.311,8.784-6.657,17.958-4.791,27.048c1.867,9.092,6.946,18.099,11.17,22.574C121.621,180.739,124.996,180.686,120.521,193.156z"
	/>
</svg>
