<?xml version="1.0" encoding="utf-8"?>
<!-- Generator: Adobe Illustrator 19.0.0, SVG Export Plug-In . SVG Version: 6.00 Build 0)  -->
<svg version="1.1" id="Layer_1" xmlns="http://www.w3.org/2000/svg" xmlns:xlink="http://www.w3.org/1999/xlink" x="0px" y="0px"
	 viewBox="0 0 600 600" style="enable-background:new 0 0 600 600;" xml:space="preserve">
<style type="text/css">
	.st0{fill:#010101;}
	.st1{fill:#FFFFFF;}
</style>
<g id="XMLID_1_">
	<path id="XMLID_2_" class="st0" d="M514.1,92.4c-14.3-0.7-40,4.7-62.1,16.3c-22.1,11.6-47.4,25.2-72.2,53.1
		c-24.8,27.9-34.8,49.8-37.1,55c-2.4,5.2-7.8,21.4-13.6,37.7c0,0-4.5,0.2-2.4-13.4c0.9-5.9-0.9-9.7-3.6-11.9c0.7-0.9,1.5-2,2.3-3.1
		c2.5-3.4,7.3-13.8,10-19.7c2.7-5.9,7.1-12.9,9.3-16.3s6.3-10.7,8.7-15.3s5.4-11.3,7.2-13.2c1.7-1.9,7-10.7,9.2-15.1
		c2.2-4.4,7.2-16.5,9.3-21.3c2.1-4.8,4.4-7.6,4.1-11.4c-0.2-2.7,1.5-1.8,2.4-2.1c0.9-0.3,2.3-4.5,4-9c1.7-4.5-0.6-6.1-2.2-4.5
		c-1.6,1.6-2.2,3.3-3.6,6.1c-1.4,2.8-9.7,23.8-11.6,28.2c-2.4,5.6-12.6,24.6-14.7,30.1S344,188,339.7,195.2
		c-4,6.8-13.2,19.8-20.9,31.9c-1.4-0.4-2.9-0.6-4.2-0.6c-1.3,0-2.8,0.2-4.2,0.6c-7.7-12.1-16.9-25.1-20.9-31.9
		c-4.3-7.2-15.3-27.2-17.4-32.7s-12.3-24.5-14.7-30.1c-1.9-4.4-10.2-25.4-11.6-28.2c-1.4-2.8-2-4.5-3.6-6.1c-1.6-1.6-4,0-2.2,4.5
		c1.7,4.5,3.1,8.8,4,9c0.9,0.3,2.6-0.6,2.4,2.1c-0.3,3.8,2,6.6,4.1,11.4c2.1,4.8,7.1,16.9,9.3,21.3c2.2,4.4,7.5,13.2,9.2,15.1
		c1.7,1.9,4.8,8.6,7.2,13.2s6.5,11.9,8.7,15.3s6.6,10.4,9.3,16.3c2.7,5.9,7.4,16.3,10,19.7c0.8,1.1,1.6,2.1,2.3,3.1
		c-2.8,2.2-4.6,6-3.6,11.9c2.1,13.6-2.4,13.4-2.4,13.4c-5.9-16.3-11.3-32.5-13.6-37.7c-2.4-5.2-12.3-27.1-37.1-55
		c-24.8-27.9-50.2-41.5-72.2-53.1c-22.1-11.6-47.8-17-62.1-16.3c-14.3,0.7-33.8,7.9-32.3,30.4c1.5,22.5,12.2,29.7,20.1,53.7
		c7.9,24,8,32.1,7.9,38.9c-0.1,6.8,3.1,10.7,3.1,14.9c0,4.1-0.9,9.5,1.3,15.1c2.2,5.7,5.6,22.5,11.7,29.4
		c6.1,6.9,13.6,10.3,25.4,11.9c11.8,1.7,21.1,0.8,25.8,0.6c-10.3,4-18.8,7.1-23.8,12.3c-5,5.2-7.3,13.4-12,20.9s-2.8,15.9-1.9,22.5
		c0.9,6.6-5,15.5-5.4,20c-0.4,4,7.8,9.7,9.3,10.4s2.7-1.2,4.3,1.9c1.6,3-1.1,6.5-0.2,8.9c0.9,2.4,5.5,1.7,6.3,6.3s-1.8,7.6-2.6,8.7
		c-0.8,1-5.3,4.1-3.5,8.9c1.8,4.8,6.7,8.9,12.6,14.2c5.9,5.4,10.1,14.6,8.5,25.7c-1.6,11.1-5.9,23.2-9.2,28.9
		c-3.3,5.7-7.9,12.5-10.6,19.5c-2.7,7-2.7,16.3,3.5,23c6.3,6.7,10.7,4.9,13.2-4.2c2.5-9.1,3.4-24.5,5.3-31.7
		c1.9-7.2,4.3-11.5,12.6-18.9c8.4-7.4,17.9-4,21.5-3c3.6,1,7.9,2,12.4,2.2c4.5,0.1,10.5,3.3,14.5,3c4-0.3,8.4-3.4,12-3.1
		s8.6-4.7,11.3-8.4c2.7-3.7,5.6-6.4,10.7-10.2s5.2-7.4,5.3-9.6c0.1-2.2,2-17.6,3.3-23s8.6-35.1,11.8-46.1c3.2-11,9.1-31.1,10.6-36.3
		c1.5-5.2,1.8-7.4,4.7-12.3c-0.5,11.5,0.6,23.9,1.2,29.6c0.7,5.7,1.9,14.3,3.8,19.1c1.9,4.8,4.3,6.6,6.7,5.5
		c2.3,1.1,4.8-0.7,6.7-5.5c1.9-4.8,3.1-13.4,3.8-19.1c0.7-5.7,1.7-18.2,1.2-29.6c2.9,4.9,3.1,7.1,4.7,12.3
		c1.5,5.2,7.4,25.3,10.6,36.3c3.2,11,10.5,40.7,11.8,46.1s3.2,20.8,3.3,23c0.1,2.2,0.2,5.8,5.3,9.6s8,6.5,10.7,10.2
		c2.7,3.7,7.7,8.6,11.3,8.4s7.9,2.9,12,3.1c4,0.3,10-2.9,14.5-3c4.5-0.1,8.8-1.2,12.4-2.2c3.6-1,13.1-4.3,21.5,3
		c8.4,7.4,10.7,11.6,12.6,18.9c1.9,7.2,2.9,22.6,5.3,31.7c2.5,9.1,6.9,10.9,13.2,4.2c6.3-6.7,6.2-16,3.5-23
		c-2.7-7-7.3-13.8-10.6-19.5c-3.3-5.7-7.6-17.7-9.2-28.9c-1.6-11.1,2.6-20.4,8.5-25.7c5.9-5.4,10.9-9.4,12.6-14.2
		c1.8-4.8-2.8-7.9-3.5-8.9c-0.8-1-3.5-4.1-2.6-8.7s5.4-3.8,6.3-6.3c0.9-2.4-1.7-5.9-0.2-8.9c1.6-3,2.8-1.1,4.3-1.9s9.7-6.4,9.3-10.4
		c-0.4-4.5-6.3-13.3-5.4-20c0.9-6.6,2.8-15-1.9-22.5s-7-15.7-12-20.9c-5-5.2-13.5-8.3-23.8-12.3c4.7,0.1,14,1,25.8-0.6
		c11.8-1.7,19.3-5,25.4-11.9c6.1-6.9,9.5-23.8,11.7-29.4c2.2-5.7,1.3-11,1.3-15.1c0-4.1,3.2-8,3.1-14.9c-0.1-6.8,0-14.9,7.9-38.9
		c7.9-24,18.6-31.2,20.1-53.7C547.9,100.3,528.3,93.1,514.1,92.4z"/>
	<path id="XMLID_8_" class="st1" d="M299.3,256.8c-10.8-18.2-16.9-27.4-21.6-36.4c-4.6-9-8.8-18.3-15.5-23.1
		c-6.8-4.8-8.6-11.7-19.2-20.5c-10.6-8.8-10.5-15-22.2-25.3c-11.7-10.3-20.2-11.8-20.2-11.8c3.2,4.7,10.7,15.2,3.5,15.9
		s-23.5-3.9-35,7.9c8.7-0.5,20.5-2.3,25.4,4.2c-11-0.4-18.4-1.4-22.3,2.5c6.9,2.4,13.8,4.4,16,6.7c-5,1.6-10,3.7-11.9,5.4
		c8.9,0.2,19.4,2.7,22.5,3.8c-12.2-0.2-21.2-0.5-26.6,3.1c4.6,3.8,9.1,3.1,11.8,3c-3.4,2.9-6.4,4.3-9,5.8c8.7-0.3,15.1-0.7,19.6,4.4
		c-10.6-0.3-20.8,5-24.8,8.3c10,0,25.9,2.4,33,6.9c-13.1-0.4-34.1,6.2-48.3,15.2c10.3-0.6,47-9.4,62,4.2c-19.2,0-40.9,2.9-53.5,17.9
		c9.1,1.2,18.7-0.4,23.3-2.3s9-1,11.3-0.7c-6.2,4.4-14.7,10-22.8,12.1s-8.2,3.1-9.3,4c5.5,7.2,24.1,13.1,33,12.4s28.9-4.1,36.9-4.7
		s46.1-2.1,55.7-2.2c-2.5-6.2-9.6-13.8-19.3-17.6c6.6,0.9,17.2,6.7,23.2,5.6C301.1,260.5,299.3,256.8,299.3,256.8z"/>
	<path id="XMLID_9_" class="st1" d="M292.3,278c-14.6,0-37.9-0.3-43.2,0.1s-23.8,3-28.9,3c3,2.4,14.4,9.8-7.7,14.7
		c7.3-0.6,11,1.2,13.6,4.4c-11-0.2-19.1,3.3-21.9,5.1c3.6,0.1,6.3,0,6.3,0c-3.5,2.8-11.2,7-19.2,9.2c5,1.1,10.1,0.5,12.1,0.4
		c2-0.2,1.8,1.1,0.1,3.3c-1.6,2.2-17.8,16.1-24.8,18.2c5.8,0.2,17.8-0.4,20.4,2.5c2.6,2.9-6.3,8-7.7,8.9c1.5,1.1,2.5,2.2,2.5,2.2
		c-3.3,5.1-13.2,19.7-17.4,23.7c9.2-6.8,29.6-28.3,39.7-24c-3.8,3.7-5.2,10.5-7,15c-1.7,4.5-3,7.7-4.8,9.9c3.1-1.1,5.3-1.7,6.1-2.4
		c0.8-0.7,0.8-3.5,2.1-4.3s3.1,1.9,3.5,4.1s1.4,2.8,2.2,2.3c0.8-0.5,3.7-3.2,3.7-3.2c0.3,3.1,0.5,7.3-1.8,12.6
		c-2.3,5.3-4.4,9.1-4.5,15.2c4.2-6.2,16-12.7,18.9-14.9c0.3,4.5-2.4,18.8-3,24.8c4.3-3.5,8.8-1,11.3,3.3s3,2.8,3.9-0.6
		c0.8,2.4,1.5,5.3,4.7,2.1s6.7-9.8,8-13.1c0,6.4,0.8,12.1,2.1,15.2s3.9,1,5.5-1.2c1.6-2.1,7.4-16.5,9.1-22.2
		c1.8-5.7,3.8-10.5,4.9-18.3c0.8-5.8,5.6-37.7,9.8-44.4c4.2-6.7,7.7-14.7,12.4-20.8c0.1-7.4-3.2-12.5-5.9-14.3
		c-2.7-1.8-3.6-6.3-6.2-6.9c-2.5-0.6-7.9-0.9-9.9-0.3C288,284.6,291.3,283.9,292.3,278z"/>
	<path id="XMLID_7_" class="st1" d="M329.9,256.8c10.8-18.2,16.9-27.4,21.6-36.4c4.6-9,8.8-18.3,15.5-23.1
		c6.8-4.8,8.6-11.7,19.2-20.5c10.6-8.8,10.5-15,22.2-25.3c11.7-10.3,20.2-11.8,20.2-11.8c-3.2,4.7-10.7,15.2-3.5,15.9
		s23.5-3.9,35,7.9c-8.7-0.5-20.5-2.3-25.4,4.2c11-0.4,18.4-1.4,22.3,2.5c-6.9,2.4-13.8,4.4-16,6.7c5,1.6,10,3.7,11.9,5.4
		c-8.9,0.2-19.4,2.7-22.5,3.8c12.2-0.2,21.2-0.5,26.6,3.1c-4.6,3.8-9.1,3.1-11.8,3c3.4,2.9,6.4,4.3,9,5.8
		c-8.7-0.3-15.1-0.7-19.6,4.4c10.6-0.3,20.8,5,24.8,8.3c-10,0-25.9,2.4-33,6.9c13.1-0.4,34.1,6.2,48.3,15.2c-10.3-0.6-47-9.4-62,4.2
		c19.2,0,40.9,2.9,53.5,17.9c-9.1,1.2-18.7-0.4-23.3-2.3c-4.6-1.9-9-1-11.3-0.7c6.2,4.4,14.7,10,22.8,12.1s8.2,3.1,9.3,4
		c-5.5,7.2-24.1,13.1-33,12.4c-8.9-0.7-28.9-4.1-36.9-4.7c-8-0.7-46.1-2.1-55.7-2.2c2.5-6.2,9.6-13.8,19.3-17.6
		c-6.6,0.9-17.2,6.7-23.2,5.6C328.1,260.5,329.9,256.8,329.9,256.8z"/>
	<path id="XMLID_6_" class="st1" d="M337,278c14.6,0,37.9-0.3,43.2,0.1c5.3,0.4,23.8,3,28.9,3c-3,2.4-14.4,9.8,7.7,14.7
		c-7.3-0.6-11,1.2-13.6,4.4c11-0.2,19.1,3.3,21.9,5.1c-3.6,0.1-6.3,0-6.3,0c3.5,2.8,11.2,7,19.2,9.2c-5,1.1-10.1,0.5-12.1,0.4
		c-2-0.2-1.8,1.1-0.1,3.3c1.6,2.2,17.8,16.1,24.8,18.2c-5.8,0.2-17.8-0.4-20.4,2.5c-2.6,2.9,6.3,8,7.7,8.9c-1.5,1.1-2.5,2.2-2.5,2.2
		c3.3,5.1,13.2,19.7,17.4,23.7c-9.2-6.8-29.6-28.3-39.7-24c3.8,3.7,5.2,10.5,7,15c1.7,4.5,3,7.7,4.8,9.9c-3.1-1.1-5.3-1.7-6.1-2.4
		c-0.8-0.7-0.8-3.5-2.1-4.3s-3.1,1.9-3.5,4.1s-1.4,2.8-2.2,2.3c-0.8-0.5-3.7-3.2-3.7-3.2c-0.3,3.1-0.5,7.3,1.8,12.6
		c2.3,5.3,4.4,9.1,4.5,15.2c-4.2-6.2-16-12.7-18.9-14.9c-0.3,4.5,2.4,18.8,3,24.8c-4.3-3.5-8.8-1-11.3,3.3s-3,2.8-3.9-0.6
		c-0.8,2.4-1.5,5.3-4.7,2.1c-3.2-3.2-6.7-9.8-8-13.1c0,6.4-0.8,12.1-2.1,15.2s-3.9,1-5.5-1.2c-1.6-2.1-7.4-16.5-9.1-22.2
		c-1.8-5.7-3.8-10.5-4.9-18.3c-0.8-5.8-5.6-37.7-9.8-44.4c-4.2-6.7-7.7-14.7-12.4-20.8c-0.1-7.4,3.2-12.5,5.9-14.3
		c2.7-1.8,3.6-6.3,6.2-6.9c2.5-0.6,7.9-0.9,9.9-0.3C341.2,284.6,337.9,283.9,337,278z"/>
</g>
</svg>
