<?xml version="1.0" encoding="UTF-8" standalone="no"?>
<!-- Created with Inkscape (http://www.inkscape.org/) -->
<svg
   xmlns:svg="http://www.w3.org/2000/svg"
   xmlns="http://www.w3.org/2000/svg"
   version="1.0"
   width="329.78601"
   height="472.76599"
   viewBox="0 0 329.786 472.766"
   id="Layer_1"
   xml:space="preserve"><defs
   id="defs10" />

<metadata>
<rdf:RDF
      xmlns="http://web.resource.org/cc/"
      xmlns:dc="http://purl.org/dc/elements/1.1/"
      xmlns:rdf="http://www.w3.org/1999/02/22-rdf-syntax-ns#">
      <Work rdf:about="">
         <dc:title>Clarinet Silhouette</dc:title>
         <dc:description>Clarinet Silhouette</dc:description>
         <dc:subject>
          <rdf:Bag>
            <rdf:li>music</rdf:li>
            <rdf:li>instrument</rdf:li>
	    <rdf:li>clarinet</rdf:li>
	    <rdf:li>Silhouette</rdf:li>
          </rdf:Bag>
         </dc:subject>
         <dc:publisher><Agent rdf:about="http://www.openclipart.org/"><dc:title>Open Clip Art Project</dc:title></Agent></dc:publisher>
         <dc:creator><Agent rdf:about=""><dc:title>Gerald G.</dc:title></Agent></dc:creator>
         <dc:rights><Agent rdf:about="http://web.resource.org/cc/PublicDomain"><dc:title>Public Domain</dc:title></Agent></dc:rights>
         <dc:date>2006/10/02</dc:date>
         <dc:format>image/svg+xml</dc:format>
         <dc:type>http://purl.org/dc/dcmitype/StillImage</dc:type>
         <license rdf:resource="http://web.resource.org/cc/PublicDomain" />
      </Work>
      <License rdf:about="http://web.resource.org/cc/PublicDomain">
         <permits rdf:resource="http://web.resource.org/cc/Reproduction" />
         <permits rdf:resource="http://web.resource.org/cc/Distribution" />
         <permits rdf:resource="http://web.resource.org/cc/DerivativeWorks" />
      </License>
   </rdf:RDF>
</metadata>

<g
   id="g5">
	<path
   d="M 24.011,64.22 L 31.547,76.253 L 38.849,87.117 L 38.79,88.402 L 41.594,92.141 L 42.645,92.258 L 55.554,111.418 L 55.554,111.418 C 54.737,112.294 54.562,113.112 54.795,114.105 C 54.912,114.981 55.671,116.033 56.839,117.026 L 56.839,117.026 C 56.605,117.435 56.839,118.545 57.774,120.122 C 58.65,121.699 60.169,123.627 62.097,126.605 C 63.849,129.468 65.66,132.914 67.996,137.178 L 67.996,137.178 C 67.937,137.996 68.23,138.697 68.639,139.514 C 68.99,140.157 69.691,140.915 70.508,141.558 L 70.508,141.558 L 75.124,149.444 L 75.124,149.444 C 74.656,151.254 74.656,152.423 74.89,153.416 C 75.007,154.176 75.591,154.76 76.409,154.701 L 76.409,154.701 C 76.234,155.577 76.584,156.22 76.818,156.863 C 77.226,157.388 77.519,157.856 78.337,158.265 L 78.337,158.265 L 85.756,169.13 L 85.756,169.13 C 85.347,170.298 85.347,170.999 85.756,171.7 C 85.989,172.168 86.632,172.635 87.683,172.635 L 87.683,172.635 L 93.291,180.053 L 93.291,180.053 C 93.234,181.455 93.525,182.623 93.934,183.324 C 94.343,183.967 94.985,184.141 95.861,184.083 L 95.861,184.083 L 100.068,188.99 L 100.068,188.99 C 99.893,190.392 100.009,191.502 100.418,192.32 C 100.827,193.022 101.528,193.43 102.521,193.547 L 102.521,193.547 L 106.844,199.856 L 106.844,199.856 C 106.727,201.257 106.961,202.601 107.078,204.12 C 107.137,205.523 107.546,207.274 107.837,208.677 C 108.129,209.787 108.596,210.78 109.005,211.889 C 109.413,212.999 110.232,214.226 110.524,215.336 C 110.699,216.154 110.699,216.913 110.29,217.38 L 110.29,217.38 C 109.298,217.672 108.713,218.023 108.771,218.665 C 108.83,219.308 109.413,220.126 110.29,220.885 C 111.05,221.411 112.16,221.936 112.978,221.995 C 113.561,221.878 113.737,220.885 113.737,220.359 C 113.737,219.717 113.328,219.191 112.744,218.548 L 112.744,218.548 C 112.744,217.263 112.685,216.153 112.335,214.985 C 111.868,213.875 111.05,212.881 110.583,211.772 C 109.999,210.487 109.24,208.852 109.181,207.566 C 108.889,206.106 108.948,204.704 109.123,203.361 L 109.123,203.361 L 110.817,205.755 L 110.817,205.755 C 110.642,206.865 110.992,207.683 111.225,208.852 C 111.459,209.845 111.927,210.663 112.627,212.006 C 113.094,213.116 114.379,214.81 114.905,215.979 C 115.255,217.03 115.548,217.731 115.548,218.783 C 115.489,219.718 115.314,220.711 115.022,221.762 L 115.022,221.762 C 114.38,221.644 113.796,221.587 113.737,222.229 C 113.445,222.697 113.445,223.923 113.97,224.799 C 114.262,225.383 116.19,226.551 116.832,226.727 C 117.416,226.727 118,226.026 118.118,225.558 C 118.235,225.033 117.943,224.273 117.475,223.515 L 117.475,223.515 C 117.884,223.34 118.176,222.93 118.352,222.288 C 118.352,221.529 118.293,220.536 117.943,219.309 L 117.943,219.309 C 118.76,220.185 119.578,221.413 120.162,222.755 C 120.746,224.099 121.097,225.559 121.447,227.37 L 121.447,227.37 C 120.046,226.786 119.111,226.669 118.877,227.253 C 118.468,227.838 118.936,229.357 119.637,230.466 C 120.28,231.225 121.214,231.868 122.674,232.394 L 122.674,232.394 C 122.382,233.913 122.323,234.964 122.966,235.782 C 123.551,236.306 124.368,236.541 125.887,236.715 C 127.231,236.832 128.866,236.95 131.028,236.832 L 131.028,236.832 L 136.11,244.017 L 136.11,244.017 C 135.702,244.778 135.818,245.538 136.227,246.061 C 136.636,246.647 137.454,246.996 138.68,247.347 L 138.68,247.347 C 139.264,248.516 140.491,250.269 142.126,252.84 C 143.646,255.293 145.807,258.329 148.376,262.186 L 148.376,262.186 C 147.967,263.413 147.967,264.23 148.376,264.874 C 148.609,265.396 149.253,265.691 150.303,265.749 L 150.303,265.749 L 158.248,277.373 L 158.248,277.373 C 157.663,278.364 157.546,279.068 157.897,279.477 C 158.248,279.885 158.89,279.885 160.059,279.708 L 160.059,279.708 C 161.111,281.343 161.927,282.569 162.746,283.155 C 163.505,283.564 164.265,283.564 164.791,283.155 C 165.199,282.864 165.49,281.928 165.667,280.994 L 165.667,280.994 C 165.549,281.111 165.667,281.285 166.017,281.751 C 166.368,282.104 166.602,282.569 167.362,283.155 L 167.362,283.155 L 167.068,284.321 L 167.068,284.321 C 165.141,284.73 163.681,285.491 162.454,286.134 C 161.227,286.717 160.002,287.595 159.65,288.53 C 159.066,289.405 159.183,290.805 159.534,291.857 C 159.943,292.91 160.819,293.727 161.929,294.31 C 162.864,294.602 164.033,294.545 165.433,293.902 L 165.433,293.902 C 165.025,294.488 165.025,294.954 165.433,295.305 C 165.784,295.597 166.544,295.771 167.712,295.831 L 167.712,295.831 C 166.427,297.698 165.783,299.275 165.783,300.562 C 165.726,301.789 166.544,302.72 167.595,303.364 C 168.588,303.95 169.873,304.242 171.685,304.242 L 171.685,304.242 C 173.203,305.643 174.605,306.285 176.123,306.402 C 177.526,306.46 178.811,305.76 180.213,304.533 L 180.213,304.533 C 181.558,306.225 182.667,307.569 183.542,308.33 C 184.302,309.091 184.828,309.438 185.119,309.383 L 185.119,309.383 C 184.068,310.434 183.366,311.252 182.784,312.07 C 182.082,312.771 181.673,313.47 181.79,313.937 C 181.849,314.406 182.784,314.64 183.951,314.872 L 183.951,314.872 C 183.719,316.451 184.185,317.677 184.711,318.086 C 185.413,318.611 186.172,318.32 187.632,317.677 L 187.632,317.677 C 190.494,319.43 192.597,321.065 194.173,322.818 C 195.635,324.218 194.349,324.105 196.861,327.666 C 199.256,331.463 204.748,339.174 208.602,344.958 C 212.281,350.39 215.669,355.586 219,360.553 L 219,360.553 C 218.59,360.553 218.298,360.845 218.123,361.197 C 217.83,361.431 217.656,361.897 217.83,362.598 C 217.889,363.184 218.474,364.001 219.115,365.05 L 219.115,365.05 C 218.707,365.576 218.532,366.279 218.59,366.689 C 218.59,367.211 218.649,367.446 219.233,367.855 C 219.583,368.089 220.46,368.324 221.394,368.324 L 221.394,368.324 C 222.563,370.135 223.672,371.477 224.723,372.352 C 225.6,373.055 226.826,373.347 227.528,373.23 C 228.112,373.113 228.637,372.53 228.872,371.711 L 228.872,371.711 L 232.319,378.078 L 232.142,379.07 L 234.712,383.861 L 235.763,384.093 L 235.763,384.093 C 240.961,394.373 245.46,403.019 249.024,409.794 C 252.528,416.57 254.165,418.617 257.318,424.749 C 260.415,430.707 264.796,439.996 267.307,445.662 C 269.586,451.033 270.344,454.83 271.162,457.987 C 271.862,461.197 271.921,463.419 271.57,464.88 L 271.57,464.88 C 270.519,466.106 269.817,467.45 269.235,468.677 C 268.709,469.903 268.299,471.073 268.241,472.182 L 268.241,472.182 C 271.688,472.939 275.193,472.939 278.989,472.182 C 282.553,471.304 286.115,469.668 290.614,467.273 C 295.11,464.763 302.298,460.324 306.326,457.81 C 310.299,455.126 312.753,453.313 314.154,451.912 L 314.154,451.912 C 317.425,449.691 320.111,447.355 322.449,445.137 C 324.669,442.741 326.538,439.997 327.822,438.01 C 328.933,435.906 329.401,434.038 329.692,432.869 C 329.867,431.469 329.751,430.765 329.341,430.299 L 329.341,430.299 C 325.543,430.651 322.565,430.357 320.169,430.065 C 317.717,429.539 316.898,429.013 315.029,427.787 C 313.045,426.329 311.056,424.69 308.604,422.237 C 306.033,419.844 303.755,417.566 299.958,413.592 C 295.985,409.329 290.027,402.963 285.004,397.179 C 279.864,391.338 273.381,383.744 269.35,378.896 C 265.144,373.931 262.048,370.251 260.062,367.855 L 260.062,367.855 L 260.003,366.629 L 256.615,362.131 L 255.448,361.897 L 255.448,361.897 C 250.774,355.414 246.452,349.22 242.011,343.088 C 237.629,336.778 233.366,330.998 229.219,325.039 L 229.219,325.039 C 228.985,323.871 228.634,322.935 228.167,322.235 C 227.524,321.357 227.057,320.773 226.123,320.247 L 226.123,320.247 C 221.449,313.646 217.477,307.454 213.33,301.674 C 209.24,295.655 205.502,290.341 201.88,285.083 L 201.88,285.083 C 202.289,284.439 202.289,283.331 202.114,282.395 C 201.821,281.286 201.356,279.534 200.479,278.716 C 199.486,277.663 198.024,276.963 196.331,276.38 L 196.331,276.38 C 194.519,273.927 192.651,271.005 190.49,267.852 C 188.212,264.521 185.7,260.49 183.188,256.868 C 180.676,253.132 178.048,249.51 175.537,245.77 L 175.537,245.77 C 176.821,245.305 177.698,244.778 178.166,244.195 C 178.516,243.377 178.223,242.616 177.932,242.151 C 177.347,241.564 176.237,241.507 175.537,241.507 C 174.893,241.446 174.135,241.916 173.725,242.442 L 173.725,242.442 L 172.44,241.039 L 172.44,241.039 C 174.134,239.872 175.243,238.937 175.537,238.237 C 175.769,237.359 174.893,236.716 174.252,236.541 C 173.55,236.25 172.44,236.424 171.155,236.833 L 171.155,236.833 C 173.725,235.433 175.361,234.147 176.296,232.979 C 176.938,231.577 176.704,230.467 176.296,229.416 C 175.828,228.365 175.187,226.846 174.135,226.671 C 173.141,226.379 171.447,226.73 170.162,227.488 C 168.643,227.956 167.065,228.891 165.43,230.058 L 165.43,230.058 C 160.525,223.224 156.669,217.967 153.398,213.411 C 150.127,208.972 147.732,205.526 145.98,203.306 L 145.98,203.306 C 147.558,199.801 148.608,197.231 148.9,195.596 C 148.959,193.902 148.667,193.259 147.791,192.968 C 146.915,192.5 145.513,192.325 144.461,192.676 C 143.235,193.027 142.066,193.669 140.956,194.837 L 140.956,194.837 C 139.205,192.033 137.335,189.406 135.582,186.718 C 133.712,183.973 131.727,181.403 129.857,178.774 L 129.857,178.774 C 130.15,177.139 130.033,175.854 129.741,174.686 C 129.332,173.459 128.69,172.524 127.814,171.882 C 126.937,171.239 125.827,170.889 124.483,170.831 L 124.483,170.831 L 113.209,153.95 L 113.209,153.95 C 113.15,151.671 112.858,149.802 112.333,148.342 C 111.807,146.648 111.048,145.422 110.055,144.662 C 108.946,143.902 107.368,143.552 105.557,143.845 L 105.557,143.845 L 104.389,141.976 L 104.389,141.976 C 104.74,140.808 104.623,139.64 104.272,138.238 C 103.863,136.778 103.279,135.317 101.877,133.622 C 100.357,131.812 98.022,129.767 95.101,127.489 L 95.101,127.489 L 90.486,119.661 L 90.486,119.661 C 91.654,119.31 92.59,118.961 93.29,118.376 C 93.875,117.675 94.284,117.033 94.284,116.448 C 94.051,115.689 93.583,114.754 92.882,114.579 C 92.123,114.287 90.779,114.52 90.195,115.046 C 89.494,115.455 88.91,116.097 88.676,117.207 L 88.676,117.207 C 87.916,116.447 86.164,113.877 83.419,109.73 C 80.499,105.29 75.299,97.288 71.912,92.03 C 68.524,86.831 65.545,82.451 63.208,78.887 L 63.208,78.887 L 63.208,77.83 L 60.288,73.624 L 59.295,73.098 L 54.797,66.497 L 54.797,66.497 C 51.467,61.766 48.663,57.735 45.743,53.763 C 42.822,49.792 40.194,46.287 37.623,43.015 L 37.623,43.015 L 37.623,42.08 L 36.922,40.971 L 36.922,40.971 C 37.389,40.679 37.798,40.095 37.915,39.685 C 37.974,39.043 37.974,38.283 37.681,37.874 C 37.215,37.291 36.455,36.823 35.87,36.707 C 35.169,36.473 34.527,36.473 33.942,36.707 L 33.942,36.707 L 32.19,33.552 L 31.022,33.143 L 28.452,29.58 L 28.452,29.58 C 29.095,28.704 29.446,28.003 29.504,27.244 C 29.446,26.309 29.212,25.433 28.569,25.082 C 27.81,24.674 26.817,24.79 25.357,25.199 L 25.357,25.199 L 22.669,22.571 L 21.326,22.161 L 21.326,22.161 C 16.595,15.502 12.68,10.421 9.818,6.682 C 6.838,2.944 4.91,0.724 3.8,0.023 L 3.8,0.023 L 0.412,3.353 L 0.412,3.353 C 0.061,4.697 -0.056,7.208 0.061,10.654 C 0.003,14.159 0.178,18.365 0.587,23.973 L 0.587,23.973 L 5.669,33.436 L 5.435,34.721 L 5.435,34.721 C 6.194,36.649 7.479,38.693 8.647,41.087 C 10.049,43.307 11.568,47.104 12.97,48.623 C 13.905,50.083 14.84,50.551 15.131,50.026 L 15.131,50.026 L 16.416,51.544 L 15.948,52.362 L 17.292,54.524 L 18.227,54.874 L 18.227,54.874 C 20.156,57.97 22.084,61.065 24.011,64.22 L 24.011,64.22 z "
   style="fill-rule:evenodd;stroke:black;stroke-width:0.036;stroke-miterlimit:10"
   id="path7" />
</g>
</svg>