<?xml version="1.0" encoding="utf-8"?>
<!-- Generator: Adobe Illustrator 15.1.0, SVG Export Plug-In . SVG Version: 6.00 Build 0)  -->
<!DOCTYPE svg PUBLIC "-//W3C//DTD SVG 1.1//EN" "http://www.w3.org/Graphics/SVG/1.1/DTD/svg11.dtd">
<svg version="1.1" id="Layer_1" xmlns="http://www.w3.org/2000/svg" xmlns:xlink="http://www.w3.org/1999/xlink" x="0px" y="0px"
	 width="792px" height="612px" viewBox="0 0 792 612" enable-background="new 0 0 792 612" xml:space="preserve">
<path fill-rule="evenodd" clip-rule="evenodd" stroke="#000000" stroke-width="2.9999" stroke-linecap="round" stroke-linejoin="round" stroke-miterlimit="22.9256" d="
	M49.022,291.719h31.486c-1.093-1.209-1.709-2.58-1.709-4.033c0-4.883,6.967-8.842,15.562-8.842s15.561,3.958,15.561,8.842
	c0,1.453-0.617,2.824-1.709,4.033h23.649c-1.093-1.209-1.71-2.58-1.71-4.033c0-4.883,6.967-8.842,15.562-8.842
	c8.594,0,15.561,3.958,15.561,8.842c0,1.453-0.617,2.824-1.709,4.033h65.302v-6.794h-5.208c-1.429,1.4-3.385,2.263-5.543,2.263
	c-4.375,0-7.922-3.546-7.922-7.922c0-4.375,3.547-7.922,7.922-7.922c2.159,0,4.115,0.864,5.544,2.264h224.483
	c0-1.634,1.336-2.97,2.97-2.97h5.802c1.634,0,2.97,1.336,2.97,2.97h25.436c1.43-1.4,3.386-2.264,5.544-2.264
	c4.376,0,7.923,3.547,7.923,7.922c0,4.376-3.547,7.922-7.923,7.922c-2.158,0-4.114-0.863-5.543-2.263h-25.437v6.794h44.275
	c0.363-1.991,2.116-3.513,4.207-3.513h4.039c2.091,0,3.844,1.522,4.207,3.513h35.575c0.363-1.991,2.116-3.513,4.207-3.513h4.039
	c2.091,0,3.844,1.522,4.207,3.513h51.28c0-2.725,2.229-4.955,4.955-4.955h84.166c2.726,0,4.955,2.229,4.955,4.955h29.894
	c0.363-1.991,2.116-3.513,4.208-3.513h4.038c2.352,0,4.276,1.924,4.276,4.276v3.646h5.258c1.556,0,2.829,1.273,2.829,2.83v22.352
	c0,1.556-1.273,2.829-2.829,2.829h-5.258v3.646c0,2.352-1.925,4.275-4.276,4.275h-4.038c-2.092,0-3.845-1.521-4.208-3.513h-175.25
	c-0.362,1.991-2.116,3.513-4.207,3.513h-4.039c-2.091,0-3.845-1.521-4.207-3.513h-35.575c-0.362,1.991-2.116,3.513-4.207,3.513
	h-4.039c-2.091,0-3.845-1.521-4.207-3.513H390.345c1.069,0.988,2.482,1.761,4.662,2.306c3.584,0.896,9.242,1.179,13.77,1.32
	c4.526,0.142,7.922,0.142,9.337,1.65c1.414,1.509,0.849,4.527-1.557,6.271c-2.404,1.745-6.648,2.217-12.543,2.264
	s-13.439-0.33-18.296-1.697c-4.857-1.368-7.026-3.726-8.535-7.404c-0.591-1.441-1.082-3.086-1.374-4.71H256.553
	c0.003,0.077,0.005,0.153,0.005,0.23c0,4.767-5.701,8.63-12.732,8.63s-12.732-3.863-12.732-8.63c0-0.077,0.001-0.153,0.004-0.23
	H49.022c-0.363,1.991-2.116,3.513-4.208,3.513h-4.039c-2.352,0-4.276-1.924-4.276-4.275v-35.303c0-2.352,1.924-4.276,4.276-4.276
	h4.039C46.906,288.206,48.659,289.728,49.022,291.719L49.022,291.719z M444.143,284.924h-14.147v6.794h14.147V284.924
	L444.143,284.924z M422.639,284.924h-53.05v6.794h53.05V284.924L422.639,284.924z M362.232,284.924h-26.985v6.794h26.985V284.924
	L362.232,284.924z M327.891,284.924h-26.985v6.794h26.985V284.924L327.891,284.924z M293.549,284.924h-26.985v6.794h26.985V284.924
	L293.549,284.924z M259.208,284.924h-26.985v6.794h26.985V284.924z"/>
</svg>
