<?xml version="1.0" encoding="UTF-8" standalone="no"?>
<!-- Created with Inkscape (http://www.inkscape.org/) -->

<svg
   xmlns="http://www.w3.org/2000/svg"
   version="1.1"
   width="90"
   height="80"
   id="greek_omega">
  <path
     d="m 4.5000017,76.914062 0,-14.343751 3.6562498,0 5.3437495,8.015626 14.0625,0 0,-4.640625 -5.90625,-2.214844 C 15.890608,61.445327 11.484363,57.912128 8.4375015,53.130858 5.4374945,48.314481 3.937496,42.179721 3.9375017,34.726561 3.937496,25.867236 7.7343671,18.378963 15.328126,12.261717 22.921851,6.1446 32.812466,3.0860092 44.999999,3.0859354 57.187441,3.0860092 67.078055,6.1446 74.671874,12.261717 c 7.593665,6.117246 11.390536,13.605519 11.390624,22.464844 -8.8e-5,7.45316 -1.523523,13.58792 -4.570313,18.404297 -3.000079,4.78127 -7.382887,8.314469 -13.148436,10.59961 l -5.90625,2.214844 0,4.640625 14.062499,0 5.343751,-8.015626 3.656249,0 0,14.343751 -34.312498,0 0,-12.234375 c 7.687438,-2.531236 13.171809,-6.609356 16.453124,-12.234376 3.281178,-5.624969 4.9218,-11.531213 4.921874,-17.71875 -7.4e-5,-6.749952 -2.250071,-12.79682 -6.749999,-18.140626 -4.500063,-5.343684 -11.437555,-8.0155561 -20.8125,-8.0156245 -9.375036,6.84e-5 -16.312529,2.6719405 -20.812498,8.0156245 -4.500021,5.343806 -6.750019,11.390674 -6.75,18.140626 -1.9e-5,6.187537 1.640604,12.093781 4.921875,17.71875 3.281222,5.62502 8.765592,9.70314 16.453124,12.234376 l 0,12.234375 -34.3124983,0" />
</svg>
