<?xml version="1.0" encoding="utf-8"?>
<!-- Generator: Adobe Illustrator 15.1.0, SVG Export Plug-In . SVG Version: 6.00 Build 0)  -->
<!DOCTYPE svg PUBLIC "-//W3C//DTD SVG 1.1//EN" "http://www.w3.org/Graphics/SVG/1.1/DTD/svg11.dtd">
<svg version="1.1" id="Layer_1" xmlns="http://www.w3.org/2000/svg" xmlns:xlink="http://www.w3.org/1999/xlink" x="0px" y="0px"
	 width="612px" height="792px" viewBox="0 0 612 792" enable-background="new 0 0 612 792" xml:space="preserve">
<path fill-rule="evenodd" clip-rule="evenodd" stroke="#000000" stroke-width="2.9999" stroke-linecap="round" stroke-linejoin="round" stroke-miterlimit="22.9256" d="
	M103.96,80.006c3.626-1.608,9.607-3.776,15.813-6.542c6.206-2.766,12.635-6.131,19.551-8.187s14.318-2.803,22.168-2.542
	c7.851,0.262,16.15,1.533,22.131,2.916c4.834,1.118,8.153,2.309,10.473,4.028c0.694,0.043,1.378,0.083,2.05,0.121
	c8.037,0.449,14.393,0.449,24.3-3.439c9.906-3.888,23.364-11.664,34.729-17.533c11.364-5.87,20.635-9.832,30.804-11.477
	s21.234-0.972,30.392,2.617c9.159,3.588,16.412,10.093,21.234,19.028c4.823,8.935,7.215,20.3,8.523,44.375
	c1.171,21.545,1.475,53.278,1.284,129.265c5.637,1.088,9.894,6.047,9.894,12.001c0,5.979-4.293,10.955-9.965,12.015l-0.001,0.325
	c8.891,1.009,15.799,8.555,15.799,17.716c0,9.206-6.976,16.782-15.93,17.731l-0.001,0.201c8.954,0.949,15.931,8.525,15.931,17.731
	c0,9.255-7.05,16.863-16.073,17.746l-0.045,11.597c5.666,2.542,9.613,8.232,9.613,14.844c0,6.657-4,12.378-9.728,14.894
	l-0.034,9.673c5.745,2.509,9.762,8.239,9.762,14.909c0,6.707-4.063,12.465-9.859,14.951l-0.042,14.714
	c5.82,2.476,9.901,8.246,9.901,14.97c0,6.749-4.112,12.537-9.968,14.998c-0.012,6.29-0.021,12.543-0.027,18.74
	c5.51,2.604,9.321,8.211,9.321,14.71c0,6.503-3.818,12.114-9.335,14.715l0.006,9.15c5.514,2.603,9.329,8.212,9.329,14.714
	c0,6.48-3.79,12.074-9.275,14.688c0.021,7.243,0.05,14.265,0.085,21.024c5.439,2.631,9.19,8.201,9.19,14.648
	c0,6.361-3.652,11.868-8.976,14.541c0.025,2.465,0.052,4.871,0.079,7.217c0.069,5.82,0.148,11.25,0.235,16.341
	c4.595,3.756,7.651,10.426,7.651,18.03c0,7.07-2.643,13.332-6.705,17.195c1.398,34.086,3.663,38.378,6.445,40.396
	c3.813,2.767,8.599,1.271,11.439-3.663c2.842-4.935,3.738-13.309,4.635-30.654c0.305-5.886,0.609-12.804,0.92-20.451
	c-7.241-3.099-12.472-11.999-12.472-22.498c0-11.317,6.077-20.778,14.199-23.115l0.193-5.114c0.283-7.427,0.577-14.94,0.886-22.37
	c-6.116-3.801-10.344-11.948-10.344-21.388c0-10.522,5.254-19.439,12.521-22.52c0.241-3.882,0.49-7.598,0.751-11.104
	c1.57-21.159,3.514-34.767,6.579-47.626c3.065-12.86,7.253-24.972,12.112-35.738c4.86-10.767,10.393-20.188,14.131-26.841
	c3.739-6.654,5.683-10.542,5.832-13.981c0.149-3.439-1.495-6.43-2.916-10.243c-1.42-3.813-2.617-8.449-2.691-12.038
	c-0.075-3.588,0.972-6.131,3.813-7.775c2.842-1.645,7.478-2.393,16.599,1.57c9.122,3.962,22.729,12.635,34.99,23.925
	c12.263,11.29,23.178,25.196,31.028,36.037c7.851,10.842,12.636,18.617,15.028,24.972c2.392,6.355,2.392,11.291,0.374,14.206
	c-2.02,2.916-6.057,3.813-10.767,3.216c-4.71-0.599-10.094-2.692-14.43-3.664c-4.337-0.972-7.627-0.822-12.859,3.624
	c-5.232,4.447-12.407,13.191-17.354,24.261c-4.948,11.069-7.668,24.465-9.649,41.399s-3.225,37.409-5.118,67.534
	c-1.892,30.126-4.435,69.902-9.893,97.79s-13.832,43.888-26.953,54.242c-13.121,10.355-30.989,15.064-46.467,14.73
	c-15.478-0.335-28.564-5.715-38.099-15.245c-1.158-1.157-2.263-2.377-3.317-3.651c-1.105,0.058-2.248-0.192-3.443-0.802
	c-3.813-1.943-8.149-7.551-11.589-15.102c-3.439-7.552-5.98-17.048-7.177-26.132c-1.196-9.084-1.047-17.757,0.897-22.317
	c0.769-1.805,1.82-2.965,2.979-3.677c-0.06-5.044-0.059-10.881,0.002-17.727c-3.474-1.6-5.9-5.117-5.9-9.175V482.955
	c0-5.552,4.542-10.094,10.093-10.094h0c0.242,0,0.482,0.009,0.72,0.026c0.401-12.341,0.815-24.967,1.236-37.736
	c-3.106-2.556-5.096-6.427-5.096-10.738V306.431c0-6.23,4.152-11.537,9.825-13.291c0.94-28.259,1.801-54.396,2.507-76.537
	c3.065-96.113,3.215-116.972,2.318-129.122c-0.897-12.149-2.842-15.589-6.729-18.766c-3.888-3.178-9.719-6.094-15.738-7.028
	c-6.019-0.935-12.225,0.112-19.028,2.729c-6.804,2.617-14.206,6.804-21.981,10.393c-7.776,3.589-15.925,6.58-23.962,8.374
	c-8.038,1.794-15.963,2.392-25.084,3.177c-3.362,0.289-6.887,0.604-10.392,0.851c-4.898,1.947-12.576,3.852-19.067,4.945
	c-7.103,1.196-12.785,1.42-20.075,0.822s-16.187-2.019-24.785-3.29s-16.897-2.393-21.869-3.365
	c-4.972-0.972-6.617-1.794-6.804-2.729S100.333,81.613,103.96,80.006z"/>
</svg>
