<?xml version="1.0" encoding="UTF-8" standalone="no"?>
<!-- Created with Inkscape (http://www.inkscape.org/) -->

<svg
   xmlns:dc="http://purl.org/dc/elements/1.1/"
   xmlns:cc="http://creativecommons.org/ns#"
   xmlns:rdf="http://www.w3.org/1999/02/22-rdf-syntax-ns#"
   xmlns:svg="http://www.w3.org/2000/svg"
   xmlns="http://www.w3.org/2000/svg"
   xmlns:sodipodi="http://sodipodi.sourceforge.net/DTD/sodipodi-0.dtd"
   xmlns:inkscape="http://www.inkscape.org/namespaces/inkscape"
   width="400"
   height="400"
   id="svg4611"
   sodipodi:version="0.32"
   inkscape:version="0.92.4 (5da689c313, 2019-01-14)"
   version="1.0"
   sodipodi:docname="Greek_lc_zeta.svg">
  <defs
     id="defs4613" />
  <sodipodi:namedview
     id="base"
     pagecolor="#ffffff"
     bordercolor="#666666"
     borderopacity="1.0"
     gridtolerance="10000"
     guidetolerance="10"
     objecttolerance="1.6"
     inkscape:pageopacity="0.0"
     inkscape:pageshadow="2"
     inkscape:zoom="0.7"
     inkscape:cx="85.90919"
     inkscape:cy="190.61883"
     inkscape:document-units="px"
     inkscape:current-layer="layer1"
     inkscape:object-bbox="true"
     inkscape:object-points="true"
     inkscape:object-nodes="true"
     inkscape:grid-points="true"
     inkscape:window-width="1920"
     inkscape:window-height="1017"
     inkscape:window-x="-8"
     inkscape:window-y="-8"
     width="400px"
     height="400px"
     showgrid="false"
     inkscape:window-maximized="1" />
  <metadata
     id="metadata4616">
    <rdf:RDF>
      <cc:Work
         rdf:about="">
        <dc:format>image/svg+xml</dc:format>
        <dc:type
           rdf:resource="http://purl.org/dc/dcmitype/StillImage" />
      </cc:Work>
    </rdf:RDF>
  </metadata>
  <g
     inkscape:label="Layer 1"
     inkscape:groupmode="layer"
     id="layer1"
     transform="translate(-256.6798,-531.7963)">
    <g
       aria-label="ζ"
       style="font-style:normal;font-weight:normal;line-height:0%;font-family:'Times New Roman';text-align:start;text-anchor:start;fill:#000000;fill-opacity:1;stroke:none;stroke-width:1px;stroke-linecap:butt;stroke-linejoin:miter;stroke-opacity:1"
       id="text5540">
      <path
         d="m 437.29364,564.00049 3.125,7.03125 q -19.33594,8.00781 -19.33594,22.85156 0,10.35156 7.03125,15.82031 7.22657,5.46875 16.40625,5.46875 0.97657,0 2.92969,-0.19531 14.0625,-14.84375 33.98438,-28.32031 19.92187,-13.47656 31.64062,-13.47656 8.98438,0 8.98438,7.22656 0,12.89062 -18.35938,25.58594 -18.35937,12.5 -50.97656,17.57812 -52.73438,54.10156 -52.73438,127.14844 0,30.07812 11.91407,45.11719 11.91406,14.84375 42.1875,14.84375 3.32031,0 15.23437,-0.78125 13.47656,-0.58594 18.35938,-0.58594 22.85156,0 32.8125,14.84375 10.15625,14.84375 10.15625,35.9375 0,30.85937 -15.625,48.63281 -15.625,17.96875 -42.77344,17.96875 -25.58594,0 -25.58594,-17.1875 0,-13.47656 13.67188,-13.47656 3.90625,0 14.64843,3.32031 8.98438,2.92969 16.01563,2.92969 12.10937,0 19.14062,-9.57031 7.22657,-9.375 7.22657,-21.28907 0,-13.28125 -7.8125,-19.33593 -7.8125,-6.05469 -25.78125,-6.05469 -4.10157,0 -19.92188,1.17187 -7.22656,0.39063 -11.91406,0.39063 -70.11719,0 -70.11719,-85.15625 0,-78.51563 57.03125,-138.86719 -14.64844,-0.39062 -24.41406,-7.61719 -9.57031,-7.22656 -9.57031,-20.89843 0,-22.46094 32.42187,-31.05469 z"
         style="font-size:400px;line-height:1.25;text-align:center;text-anchor:middle"
         id="path814" />
    </g>
  </g>
</svg>
